<svg id="Layer_1" data-name="Layer 1" xmlns="http://www.w3.org/2000/svg" xmlns:xlink="http://www.w3.org/1999/xlink" viewBox="0 0 89 95"><defs><style>.cls-1{fill:none;}.cls-2{fill:#0072cf;}.cls-3{clip-path:url(#clip-path);}.cls-4{fill:#fff;}.cls-5{clip-path:url(#clip-path-2);}.cls-6{clip-path:url(#clip-path-7);}</style><clipPath id="clip-path"><rect class="cls-1" x="13.82" y="14.51" width="61.37" height="61.36"/></clipPath><clipPath id="clip-path-2"><rect class="cls-1" x="13.83" y="14.51" width="61.34" height="61.36"/></clipPath><clipPath id="clip-path-7"><rect class="cls-1" x="13.61" y="14.07" width="61.79" height="61.8"/></clipPath></defs><title>NWLogo_BlueSquare</title><rect class="cls-2" width="89" height="95"/><g class="cls-3"><path class="cls-4" d="M33.87,67.62a.91.91,0,1,1-.95.91.94.94,0,0,1,.95-.91"/><path class="cls-4" d="M58.26,67.62a.91.91,0,1,1-1,.91.94.94,0,0,1,1-.91"/></g><g class="cls-5"><path class="cls-4" d="M25.76,73.29h-.14a5.53,5.53,0,0,0-1.31.16.67.67,0,0,0-.57.58c0,.4.4.58.77.58a1.14,1.14,0,0,0,1.25-1.14v-.18m1.53-.94v3.39H25.81v-.57a2.13,2.13,0,0,1-1.6.7,1.84,1.84,0,0,1-2.08-1.74c0-1.64,1.74-2,3.44-2h.19c0-.46-.2-.87-1.1-.87a2.18,2.18,0,0,0-1.5.53l-.89-.89A3.41,3.41,0,0,1,24.71,70a2.58,2.58,0,0,1,2,.61,2.47,2.47,0,0,1,.59,1.76"/></g><g class="cls-3"><path class="cls-4" d="M30.56,70.11V68.34H29v1.77H27.87v1.34H29v2.39a2.1,2.1,0,0,0,.46,1.59,1.91,1.91,0,0,0,1.43.44A3.19,3.19,0,0,0,32,75.64V74.37a2.67,2.67,0,0,1-.86.12c-.5,0-.62-.27-.62-.73V71.45H32V70.11H30.56"/><path class="cls-4" d="M71,72.29a1.06,1.06,0,0,0-1.2-1,1.19,1.19,0,0,0-1.21,1H71m1.7.74v.42H68.58A1.4,1.4,0,0,0,70,74.55a1.72,1.72,0,0,0,1.47-.66l1,.75A3,3,0,0,1,70,75.87a2.88,2.88,0,0,1-3.1-2.94,2.88,2.88,0,1,1,5.75.1"/></g><g class="cls-5"><polygon class="cls-4" points="19.41 67.58 19.41 73.12 15.96 67.58 13.8 67.58 13.8 75.74 15.56 75.74 15.56 70.01 19.1 75.74 21.16 75.74 21.16 67.58 19.41 67.58"/></g><g class="cls-3"><polygon class="cls-4" points="55.21 70.11 54.3 73.61 53.4 70.11 51.73 70.11 50.86 73.6 49.95 70.11 48.19 70.11 49.98 75.74 51.59 75.74 52.55 72.2 53.63 75.74 55.11 75.74 56.9 70.11 55.21 70.11"/><rect class="cls-4" x="33.07" y="70.11" width="1.61" height="5.62"/><rect class="cls-4" x="57.45" y="70.11" width="1.61" height="5.62"/><path class="cls-4" d="M47.2,70.5A1.75,1.75,0,0,0,45.81,70a2.33,2.33,0,0,0-1.67.74v-.6H42.6v5.62h1.61V72.68a1.28,1.28,0,0,1,.3-.9,1,1,0,0,1,.7-.32.77.77,0,0,1,.7.32,1.91,1.91,0,0,1,.21,1.11v2.85h1.62V72.23a2.3,2.3,0,0,0-.54-1.73"/><path class="cls-4" d="M64.45,72.93A1.42,1.42,0,1,0,63,74.45a1.42,1.42,0,0,0,1.42-1.52M66,67.58v8.16H64.5v-.63a2.23,2.23,0,0,1-1.74.76,2.67,2.67,0,0,1-1.94-.76A3.05,3.05,0,0,1,60,72.93a2.75,2.75,0,0,1,2.72-3,2.37,2.37,0,0,1,1.7.63v-3Z"/><path class="cls-4" d="M38.64,71.41a1.52,1.52,0,1,0,1.42,1.51,1.42,1.42,0,0,0-1.42-1.51m3,1.51a3,3,0,1,1-3-2.94,2.89,2.89,0,0,1,3,2.94"/><path class="cls-4" d="M72.84,68.86a1.06,1.06,0,1,1,1.06,1,1.06,1.06,0,0,1-1.06-1m-.22,0a1.28,1.28,0,1,0,1.28-1.29,1.28,1.28,0,0,0-1.28,1.29m1.06-.52h.19c.17,0,.35,0,.35.2s-.18.21-.35.21h-.19Zm-.27,1.24h.27V69h.19l.37.6h.28L74.14,69a.38.38,0,0,0,.35-.41c0-.28-.16-.44-.52-.44h-.56Z"/></g><g class="cls-5"><path class="cls-4" d="M50.21,14.52h0"/></g><path class="cls-4" d="M33.78,67.56a.92.92,0,1,1-1,.91.94.94,0,0,1,1-.91"/><path class="cls-4" d="M58.35,67.56a.92.92,0,1,1-1,.91.94.94,0,0,1,1-.91"/><g class="cls-6"><path class="cls-4" d="M27.16,72.33v3.41H25.67v-.58a2.11,2.11,0,0,1-1.61.71A1.86,1.86,0,0,1,22,74.11c0-1.65,1.76-2,3.47-2h.2c0-.46-.21-.88-1.11-.88a2.19,2.19,0,0,0-1.51.54l-.9-.9a3.43,3.43,0,0,1,2.45-.92,2.62,2.62,0,0,1,2,.61,2.51,2.51,0,0,1,.59,1.78m-1.53,1h-.15a5.44,5.44,0,0,0-1.31.15c-.32.09-.58.3-.58.59s.41.58.77.58a1.15,1.15,0,0,0,1.27-1.15v-.17"/></g><path class="cls-4" d="M30.44,70.07V68.29h-1.6v1.78H27.73v1.35h1.11v2.4a2.14,2.14,0,0,0,.45,1.61,2,2,0,0,0,1.44.44,3.26,3.26,0,0,0,1.21-.23V74.36a2.79,2.79,0,0,1-.87.12c-.5,0-.63-.28-.63-.74V71.42h1.5V70.07h-1.5"/><path class="cls-4" d="M72.88,73v.42H68.74a1.41,1.41,0,0,0,1.45,1.11,1.73,1.73,0,0,0,1.48-.66l1,.75a3,3,0,0,1-2.47,1.24,2.9,2.9,0,0,1-3.13-3,2.9,2.9,0,1,1,5.79.11m-1.71-.74a1.07,1.07,0,0,0-1.21-1,1.2,1.2,0,0,0-1.22,1h2.43"/><g class="cls-6"><polyline class="cls-4" points="19.23 67.52 19.23 73.1 15.75 67.52 13.58 67.52 13.58 75.74 15.35 75.74 15.35 69.97 18.92 75.74 20.99 75.74 20.99 67.52 19.23 67.52"/></g><polyline class="cls-4" points="55.27 70.07 54.36 73.59 53.45 70.07 51.77 70.07 50.89 73.58 49.98 70.07 48.2 70.07 50.01 75.74 51.62 75.74 52.59 72.17 53.68 75.74 55.17 75.74 56.98 70.07 55.27 70.07"/><polyline class="cls-4" points="34.59 70.07 32.97 70.07 32.97 75.74 34.59 75.74 34.59 70.07"/><rect class="cls-4" x="57.54" y="70.07" width="1.62" height="5.66"/><path class="cls-4" d="M47.2,70.46a1.71,1.71,0,0,0-1.39-.52,2.28,2.28,0,0,0-1.68.75v-.62H42.57v5.67H44.2V72.66a1.31,1.31,0,0,1,.29-.91,1,1,0,0,1,.71-.32.75.75,0,0,1,.7.32,1.84,1.84,0,0,1,.22,1.12v2.87h1.63V72.2a2.29,2.29,0,0,0-.55-1.74"/><path class="cls-4" d="M66.17,67.52v8.22H64.64v-.63a2.25,2.25,0,0,1-1.75.76,2.67,2.67,0,0,1-2-.77,3.09,3.09,0,0,1-.83-2.2,2.76,2.76,0,0,1,2.74-3,2.39,2.39,0,0,1,1.71.63v-3ZM64.59,72.9a1.44,1.44,0,1,0-1.44,1.54,1.45,1.45,0,0,0,1.44-1.54"/><path class="cls-4" d="M41.64,72.9a3.06,3.06,0,1,1-3.06-3,2.91,2.91,0,0,1,3.06,3m-3.06-1.53A1.53,1.53,0,1,0,40,72.9a1.44,1.44,0,0,0-1.44-1.53"/><path class="cls-4" d="M73.61,69.54h.27v-.61h.19l.37.61h.29l-.39-.63a.38.38,0,0,0,.36-.41c0-.28-.17-.44-.52-.44h-.57v1.48Zm.27-1.25h.19c.17,0,.36,0,.36.2s-.19.21-.36.21h-.19v-.41Zm-1.07.51a1.29,1.29,0,1,0,1.29-1.29,1.3,1.3,0,0,0-1.29,1.29m.23,0a1.07,1.07,0,0,1,2.13,0,1.07,1.07,0,1,1-2.13,0"/><g class="cls-6"><path class="cls-4" d="M50.25,14.07h0"/></g><path class="cls-4" d="M52.58,25.48V44.22l-2.33-2.28v7.22a5.47,5.47,0,0,1-1,3.76l0,0-.12.14,2.65,2.49h9.11V25.48H52.58"/><path class="cls-4" d="M32.63,37.38l4,3.8c-.35-1.3-.59-3,.11-4.16l.38-.6c-.38-2.06-.29-4.19,1-5.6l.33-.38-5.09-5H24.29V55.57h8.34V37.38"/><path class="cls-4" d="M48.68,52.43c-.93,1.07-2.13,2.6-1.87,3.72h0c.19.93,1.5,1.5,1.5,1.5l2.8,1.52-1.82,1.59,2.18.68s-2,2.06-2.23,2.26a10.48,10.48,0,0,1-1.83.16c-4.63,0-11.07-2.74-12.66-2.76a12.49,12.49,0,0,0-4.34,1.09l1.26-1.37a12.87,12.87,0,0,1-3.24.2l2.25-1.53a9.14,9.14,0,0,1-4.53-1.24S29.79,58,34.74,58c2,0,5.39.22,5.39.22-1.68-.71-3.24-1.65-3.92-3.3l3.2.48c-1.34-.82-3.29-2.88-3.65-4.48l3.57,1.25c-.64-.68-2.84-2.75-3.24-5.14l2.82,1.77c-.74-.74-2.74-4.7-2.4-5.86l2.63,1.77c-1.26-1.55-2.73-5.68-1.73-7.29A7.17,7.17,0,0,0,40,41.68C38.82,40,36.3,34,38.71,31.35c.63,6,3.17,8,3.17,8-2.1-3.35-4.5-13.65,0-15.74-.87,6.62,1.24,10.22,1.24,10.22-1.33-6.1-1.29-14.74,3.24-15.53a20,20,0,0,0-.65,11.54c-.32-15.24,4.58-15,4.58-15a73.39,73.39,0,0,0-.8,12V49.16a4.78,4.78,0,0,1-.78,3.27Zm2.91,5.39c2,.15,3.38.28,4.78.46.54.06.75.68.82,1A10.71,10.71,0,0,0,55.45,59l-.06.63a8.15,8.15,0,0,1,1.91-.27s2.05,0,2,1.38a3.26,3.26,0,0,0-2-.18,10.5,10.5,0,0,0-3.14,1.24,19.5,19.5,0,0,1-3.47,1.54c.58-.56,2.08-2.22,2.08-2.22l-2-.7L52.34,59l-2.52-1.36,1.77.15"/></svg>